<?xml version="1.0" encoding="UTF-8" standalone="no"?>
<!-- Created with Inkscape (http://www.inkscape.org/) -->

<svg
   width="297mm"
   height="210mm"
   viewBox="0 0 297 210"
   version="1.1"
   id="svg1"
   inkscape:version="1.3.2 (091e20e, 2023-11-25, custom)"
   sodipodi:docname="04-06 informatyka m.svg"
   xmlns:inkscape="http://www.inkscape.org/namespaces/inkscape"
   xmlns:sodipodi="http://sodipodi.sourceforge.net/DTD/sodipodi-0.dtd"
   xmlns="http://www.w3.org/2000/svg"
   xmlns:svg="http://www.w3.org/2000/svg">
  <sodipodi:namedview
     id="namedview1"
     pagecolor="#ffffff"
     bordercolor="#000000"
     borderopacity="0.25"
     inkscape:showpageshadow="2"
     inkscape:pageopacity="0.0"
     inkscape:pagecheckerboard="0"
     inkscape:deskcolor="#d1d1d1"
     inkscape:document-units="mm"
     showguides="true"
     inkscape:zoom="0.92370266"
     inkscape:cx="693.94625"
     inkscape:cy="377.28591"
     inkscape:window-width="1366"
     inkscape:window-height="705"
     inkscape:window-x="-8"
     inkscape:window-y="-8"
     inkscape:window-maximized="1"
     inkscape:current-layer="layer1">
    <sodipodi:guide
       position="1.0579928,169.79628"
       orientation="0,-1"
       id="guide3"
       inkscape:locked="false" />
  </sodipodi:namedview>
  <defs
     id="defs1">
    <inkscape:path-effect
       effect="bspline"
       id="path-effect6"
       is_visible="true"
       lpeversion="1.3"
       weight="33.333333"
       steps="2"
       helper_size="0"
       apply_no_weight="true"
       apply_with_weight="true"
       only_selected="false"
       uniform="false" />
    <inkscape:path-effect
       effect="spiro"
       id="path-effect5"
       is_visible="true"
       lpeversion="1" />
    <inkscape:path-effect
       effect="bspline"
       id="path-effect4"
       is_visible="true"
       lpeversion="1.3"
       weight="33.333333"
       steps="2"
       helper_size="0"
       apply_no_weight="true"
       apply_with_weight="true"
       only_selected="false"
       uniform="false" />
    <inkscape:path-effect
       effect="fillet_chamfer"
       id="path-effect2"
       is_visible="true"
       lpeversion="1"
       nodesatellites_param="F,0,0,1,0,0,0,1 @ F,0,0,1,0,0,0,1 @ F,0,0,1,0,0,0,1 @ F,0,0,1,0,0,0,1 @ F,0,0,1,0,0,0,1 @ F,0,0,1,0,0,0,1 @ F,0,0,1,0,0,0,1 @ F,0,0,1,0,0,0,1 @ F,0,0,1,0,0,0,1 @ F,0,0,1,0,0,0,1"
       radius="0"
       unit="px"
       method="auto"
       mode="F"
       chamfer_steps="1"
       flexible="false"
       use_knot_distance="true"
       apply_no_radius="true"
       apply_with_radius="true"
       only_selected="false"
       hide_knots="false" />
  </defs>
  <g
     inkscape:label="Warstwa 1"
     inkscape:groupmode="layer"
     id="layer1">
    <path
       id="rect2"
       style="fill:none;stroke:#000080;stroke-width:2.39019;stroke-dasharray:none"
       d="m 122.44234,47.075622 c 10.9695,2.569347 31.68802,14.291788 42.30103,-4.462992 16.09242,21.183778 26.43113,6.887509 42.16054,1.998267 -2.71563,42.87519 -4.66913,91.853483 -45.06769,110.355263 C 126.60963,133.84177 125.353,88.186837 122.44234,47.075622 Z"
       sodipodi:nodetypes="ccccc" />
    <path
       id="path16"
       style="fill:none;stroke:#000080;stroke-width:2.15618;stroke-dasharray:none"
       d="m 126.90442,52.567002 c 9.8104,2.337888 28.33971,13.004321 37.8313,-4.060948 14.39203,19.275451 23.6383,6.267053 37.70566,1.818256 -2.42868,39.012804 -4.17577,83.57891 -40.30563,100.41397 -31.50439,-19.2214 -32.62823,-60.763543 -35.23133,-98.171278 z"
       sodipodi:nodetypes="ccccc" />
    <text
       xml:space="preserve"
       style="font-size:19.75555556px;white-space:pre;inline-size:37.3874;fill:#000000;stroke:#000000;stroke-width:0.4;stroke-dasharray:none"
       x="133.49763"
       y="65.876282"
       id="text16"><tspan
         x="133.49763"
         y="65.876282"
         id="tspan2"><tspan
           dx="0 11.093232 11.990336 16.167183 5.4212151 10.292587"
           id="tspan1">Łowicz</tspan></tspan></text>
    <path
       d="m 142.86507,78.964287 h -9.0868 c -1.50724,-3.227493 -0.18351,-3.62402 0,-5.160765 l -1.79421,1.466236 c -0.89186,-0.880861 -0.30575,-1.170531 0,-1.572345 l 1.79421,-1.437297 c -1.45419,-2.189503 -1.05443,-4.842495 0,-7.659154 0.63665,-0.813554 1.27331,-0.825888 1.90996,0 v 6.250796 c 0.39948,-2.19478 1.85387,-2.514168 3.36656,-2.7299 0.61118,-0.0056 1.23405,-0.02128 0,1.572345 -0.72003,1.113225 -0.65606,2.641513 -3.36656,2.700961 1.00975,1.679889 1.25469,3.317289 0,4.871376 2.39228,-1.797377 4.78456,-0.756915 7.17684,0 z m 10.94854,-5.382629 c 0,1.755624 -0.45016,3.141474 -1.35048,4.15755 -0.90032,1.016076 -2.10611,1.524114 -3.61736,1.524114 -1.52411,0 -2.73633,-0.508038 -3.63665,-1.524114 -0.89389,-1.016076 -1.34083,-2.401926 -1.34083,-4.15755 0,-1.755625 0.44694,-3.141475 1.34083,-4.157551 0.90032,-1.022507 2.11254,-1.53376 3.63665,-1.53376 1.51125,0 2.71704,0.511253 3.61736,1.53376 0.90032,1.016076 1.35048,2.401926 1.35048,4.157551 z m -1.06741,-0.09458 c -0.48892,-1.223319 -1.48916,-2.389467 -1.05639,-3.484443 -1.02931,0.846813 -2.49155,-0.483027 -2.84404,-0.549585 -0.98362,-0.185729 -1.66325,1.135249 -2.48498,1.211675 0.49465,1.294896 -1.22896,2.200968 -0.62112,2.916937 1.21679,1.43325 0.81603,2.342282 0.81993,3.077166 1.00864,-0.229489 2.08989,-0.520627 2.28617,1.041799 0.12023,0.957107 0.4986,-1.972937 2.26688,-1.032153 0.0886,-0.827238 2.02449,-2.203214 1.63355,-3.181396 z m 17.42752,-5.297692 c 0.10996,3.641428 -0.29211,7.258473 -2.80707,10.774905 -0.49853,-0.609585 -0.94048,-1.784946 -1.67846,0 -2.00917,-2.696062 -2.64141,-5.48392 -2.76848,-8.305455 -0.41332,2.818793 -1.08508,5.611742 -2.7492,8.305455 -0.51684,-0.749156 -1.02931,-1.581221 -1.6688,0 -2.24082,-3.375722 -2.85486,-7.022575 -2.83601,-10.774909 1.44829,1.555516 1.51061,0.281267 1.89067,0 1.52522,2.595763 2.21772,5.369967 1.97749,8.34404 l 2.69131,-8.34404 c 0.7387,1.690227 1.12624,0.281841 1.49518,0 2.15003,2.781347 2.60284,5.562693 2.75884,8.34404 l 1.87138,-8.34404 c 0.66559,1.457683 1.1203,0.792897 1.82315,4e-6 z m 4.56269,-1.803856 c -0.73319,0.566704 -1.43709,0.811212 -2.04501,0 -0.58263,-0.4328 -0.55221,-1.069948 0,-1.88103 0.53418,-0.663719 1.2603,-0.463667 2.04501,0 0.78609,0.698473 0.59556,1.308162 0,1.88103 z m -0.11575,12.578761 c -0.98239,1.039186 -1.29663,0.240982 -1.8135,0 0.43071,-3.591636 0.45197,-7.183273 0,-10.774909 0.6045,-0.523133 1.209,-0.485475 1.8135,0 -1.21188,3.970349 -0.78629,7.428988 0,10.774909 z m 11.55625,-0.67524 c -0.6045,0.289389 -1.18006,0.514469 -1.72668,0.67524 -0.54019,0.160771 -1.11576,0.241157 -1.72669,0.241157 -0.77813,0 -1.49196,-0.11254 -2.14147,-0.33762 -0.64952,-0.231511 -1.20579,-0.578777 -1.66881,-1.041799 -0.46945,-0.463022 -0.8328,-1.04823 -1.09003,-1.755625 -0.25723,-0.707395 -0.38585,-1.53376 -0.38585,-2.479096 0,-1.762055 0.48231,-3.14469 1.44694,-4.147904 0.97106,-1.003215 2.2508,-1.504822 3.83922,-1.504822 0.61737,0 1.22187,0.08682 1.8135,0.26045 0.59807,0.173633 1.1447,0.385852 1.63987,0.636655 0.99473,0.672025 0.76444,1.34405 0,2.016075 h -0.0965 c -0.55305,-0.430868 -1.40915,-0.09997 -2.00079,-0.331478 -0.58521,-0.231511 -0.8738,-1.009356 -1.43329,-1.009356 -1.02894,0 -1.84244,0.347266 -2.44051,1.041799 -0.59164,0.688102 0.43672,1.890131 0.43672,3.22775 0,1.299033 -1.03479,2.109863 -0.45601,2.810827 0.58521,0.694533 1.68889,0.474293 2.74355,0.474293 0.36656,0 0.40851,0.09365 0.78793,-0.0028 0.37942,-0.09646 0.38921,-0.127281 0.69146,-0.281622 0.26367,-0.135048 0.70042,-0.181943 0.93193,-0.329852 0.23151,-0.154341 0.60396,-0.04971 0.73901,-0.159037 h 0.0965 c 0.25358,0.462726 0.92409,0.591918 0,1.996782 z m 10.13825,0.67524 c -2.97358,0.805915 -5.85271,0.572878 -8.70095,0 -0.55746,-0.377262 -0.44897,-0.837768 0,-1.340834 0.97655,-2.979732 2.43323,-5.813336 6.27973,-7.919604 -2.00331,0.763686 -4.01734,1.3451 -6.14469,0 -1.08805,-1.098304 -0.16051,-1.097197 0,-1.514467 2.85169,-0.561569 5.67542,-0.815586 8.40192,0 0.55005,0.388556 1.05447,0.780622 0,1.292603 -1.81576,2.783508 -2.76402,5.971849 -6.30867,7.948542 2.11447,-0.3231 4.12573,-1.420347 6.47266,0 0.44738,0.421778 0.79267,0.863973 0,1.53376 z"
       id="text17"
       style="font-size:19.7556px;stroke:#000000;stroke-width:0.4"
       aria-label="Łowicz"
       sodipodi:nodetypes="cccccccccccccccssscscscsscscscscsccccccccccccccccccccccccccsccsscscccccscscssccccccccccccccccc" />
    <path
       d="m 161.9835,107.67348 c -3.47006,-1.67755 -6.60072,-1.48847 -9.49513,0 v -2.45452 c 0.77201,1.94335 1.80097,2.08803 3.14889,0 -1.40356,-6.213404 -3.32037,-12.366427 0,-19.135587 -1.01909,-0.305376 -1.87153,-2.277327 -3.14889,0 v -2.454522 c 3.33146,1.997012 6.45009,1.440073 9.49513,0 v 2.454522 c -1.23167,-2.184371 -2.20017,-1.210739 -3.1489,0 3.60156,6.18897 1.72474,12.666273 0,19.135587 0.97517,0.40948 1.65234,2.45808 3.1489,0 z m 13.91971,0 c -3.50934,-1.8937 -6.55658,-1.24575 -9.49512,0 v -2.45452 c 1.04963,2.65886 2.09926,0.89072 3.14889,0 -1.81499,-6.265104 -2.75198,-12.585061 0,-19.135587 -1.14196,-0.73865 -2.28769,-1.507448 -3.14889,0 v -2.454522 c 3.85985,2.258136 6.77559,1.447891 9.49512,0 v 2.454522 c -1.25144,-1.816234 -2.17205,-0.655102 -3.14889,0 3.55201,7.044527 0.63378,12.875883 0,19.135587 0.83126,0.94625 1.49385,2.62344 3.14889,0 z"
       id="text18"
       style="font-size:43.6911px;stroke:#000000;stroke-width:0.669611"
       aria-label="II"
       sodipodi:nodetypes="cccccccccccccccccccccccccc" />
    <path
       d="m 157.92915,128.68962 c -0.29425,0.1284 -0.56175,0.24878 -0.8025,0.36113 -0.2354,0.11235 -0.5457,0.23005 -0.9309,0.3531 -0.32635,0.10165 -0.68213,0.18725 -1.06733,0.2568 -0.37985,0.0749 -0.79982,0.11235 -1.25992,0.11235 -0.8667,0 -1.65583,-0.12038 -2.36738,-0.36113 -0.7062,-0.2461 -1.32145,-0.62862 -1.84575,-1.14757 -0.5136,-0.50825 -0.91485,-1.15293 -1.20375,-1.93403 -0.2889,-0.78645 -0.43335,-1.69862 -0.43335,-2.73652 0,-0.9844 0.1391,-1.86448 0.4173,-2.64023 0.2782,-0.77575 0.67945,-1.43112 1.20375,-1.96612 0.50825,-0.51895 1.12083,-0.91485 1.83773,-1.1877 0.72225,-0.27285 1.52207,-0.40928 2.39947,-0.40928 0.642,0 1.28133,0.0776 1.91798,0.23273 0.642,0.15515 1.35355,0.428 2.13465,0.81855 l 0.93509,1.07545 -1.49185,1.43382 c -0.65804,-0.55105 -0.87437,-0.0172 -1.52172,-0.26866 -0.64735,-0.25145 -1.34017,-1.93566 -2.07847,-1.93566 -0.60455,0 -0.5892,1.47045 -1.07604,1.66839 -0.4815,0.1926 -1.47324,-0.87659 -1.85309,-0.46464 -0.36915,0.40125 -0.65805,0.9095 -0.8667,1.52475 -0.2033,0.6099 1.56524,1.37844 1.56524,2.18094 0,0.83995 -1.75784,1.49986 -1.53314,2.10441 0.23005,0.60455 0.5243,1.09675 0.88275,1.4766 0.3745,0.3959 1.43392,-0.74366 1.93148,-0.55106 0.5029,0.18724 0.40915,1.71468 0.96555,1.71468 0.76505,0 0.85855,-1.25319 1.5273,-1.51533 0.66875,-0.26216 1.9181,0.46673 2.50125,-0.0576 l 1.2968,0.93509 z m 12.85035,0.74202 -3.05985,0.12468 c -1.84399,-0.88215 -4.17907,-1.15042 -4.78907,-3.57506 l -0.93834,0.20818 c 0.79163,1.13368 0.68348,1.81747 -0.18702,2.12009 l -1.58895,1.43381 c 0.38042,-3.63041 1.33223,-6.63749 0,-12.13624 l 1.27725,1.43381 c 2.06273,1.4125 0.87067,2.60802 0.6234,3.86652 5.30055,-3.43258 3.8742,-3.63625 5.49038,-5.30033 l 2.30004,1.74551 c -2.56179,0.0979 -4.33139,1.05402 -4.90025,3.31093 0.14518,3.08621 3.2683,4.78272 5.77241,6.7681 z m 9.51532,0.12468 -8.26528,0.0623 c -1.42974,-0.92858 -0.95643,-1.85715 -1.18445,-2.78573 0.78197,-3.45099 3.0958,-4.79567 5.14494,-6.5043 -1.6582,-0.45328 -3.99776,-0.49774 -4.12401,-1.87019 l -0.6234,-0.85134 h 7.81588 l 0.74807,1.49881 c -0.69499,2.96962 -1.64147,5.84144 -5.2795,7.66654 2.16776,0.15025 4.63672,-0.25885 5.70541,1.93253 z"
       id="text19"
       style="font-size:16.4352px;stroke:#000000;stroke-width:0.33277"
       aria-label="CKZ"
       sodipodi:nodetypes="ccccscccssccsccccsscccscccssccccccccccccccccccccccccccc" />
  </g>
</svg>
