<?xml version="1.0" encoding="UTF-8" standalone="no"?>
<!-- Created with Inkscape (http://www.inkscape.org/) -->

<svg
   width="297mm"
   height="210mm"
   viewBox="0 0 297 210"
   version="1.1"
   id="svg1"
   inkscape:version="1.3.2 (091e20e, 2023-11-25, custom)"
   sodipodi:docname="infromatyka praca domowa.svg"
   xmlns:inkscape="http://www.inkscape.org/namespaces/inkscape"
   xmlns:sodipodi="http://sodipodi.sourceforge.net/DTD/sodipodi-0.dtd"
   xmlns="http://www.w3.org/2000/svg"
   xmlns:svg="http://www.w3.org/2000/svg">
  <sodipodi:namedview
     id="namedview1"
     pagecolor="#ffffff"
     bordercolor="#000000"
     borderopacity="0.25"
     inkscape:showpageshadow="2"
     inkscape:pageopacity="0.0"
     inkscape:pagecheckerboard="0"
     inkscape:deskcolor="#d1d1d1"
     inkscape:document-units="mm"
     showguides="true"
     inkscape:zoom="0.92370266"
     inkscape:cx="552.12572"
     inkscape:cy="394.6075"
     inkscape:window-width="1366"
     inkscape:window-height="705"
     inkscape:window-x="-8"
     inkscape:window-y="-8"
     inkscape:window-maximized="1"
     inkscape:current-layer="layer1">
    <sodipodi:guide
       position="76.704279,172.81005"
       orientation="0,-1"
       id="guide3"
       inkscape:locked="false" />
  </sodipodi:namedview>
  <defs
     id="defs1">
    <inkscape:path-effect
       effect="bspline"
       id="path-effect6"
       is_visible="true"
       lpeversion="1.3"
       weight="33.333333"
       steps="2"
       helper_size="0"
       apply_no_weight="true"
       apply_with_weight="true"
       only_selected="false"
       uniform="false" />
    <inkscape:path-effect
       effect="spiro"
       id="path-effect5"
       is_visible="true"
       lpeversion="1" />
    <inkscape:path-effect
       effect="bspline"
       id="path-effect4"
       is_visible="true"
       lpeversion="1.3"
       weight="33.333333"
       steps="2"
       helper_size="0"
       apply_no_weight="true"
       apply_with_weight="true"
       only_selected="false"
       uniform="false" />
    <inkscape:path-effect
       effect="fillet_chamfer"
       id="path-effect2"
       is_visible="true"
       lpeversion="1"
       nodesatellites_param="F,0,0,1,0,0,0,1 @ F,0,0,1,0,0,0,1 @ F,0,0,1,0,0,0,1 @ F,0,0,1,0,0,0,1 @ F,0,0,1,0,0,0,1 @ F,0,0,1,0,0,0,1 @ F,0,0,1,0,0,0,1 @ F,0,0,1,0,0,0,1 @ F,0,0,1,0,0,0,1 @ F,0,0,1,0,0,0,1"
       radius="0"
       unit="px"
       method="auto"
       mode="F"
       chamfer_steps="1"
       flexible="false"
       use_knot_distance="true"
       apply_no_radius="true"
       apply_with_radius="true"
       only_selected="false"
       hide_knots="false" />
  </defs>
  <g
     inkscape:label="Warstwa 1"
     inkscape:groupmode="layer"
     id="layer1">
    <path
       id="rect19"
       style="fill:none;stroke:#000000;stroke-width:2.60855"
       d="m 57.082174,37.085003 c 19.342655,3.132568 39.433255,-0.517805 59.936026,-7.906059 15.6473,9.233728 37.9298,12.318525 61.67964,7.906059 C 175.49973,93.623817 183.98769,144.09722 117.0182,180.97529 53.336055,148.69643 61.074834,95.010187 57.082174,37.085003 Z"
       sodipodi:nodetypes="ccccc" />
    <path
       id="path19"
       style="fill:none;stroke:#000000;stroke-width:2.45262"
       d="m 60.716629,41.150665 c 18.186381,2.945308 37.075996,-0.486851 56.353141,-7.433447 14.71193,8.68175 35.66242,11.582143 57.99253,7.433447 -3.00693,53.159012 4.97363,100.615195 -57.99253,135.288745 C 57.194447,146.09013 64.470614,95.613172 60.716629,41.150665 Z"
       sodipodi:nodetypes="ccccc" />
    <path
       d="M 90.110842,76.339645 H 78.33184 c -0.375324,-2.229924 -0.962145,-4.459848 0,-6.689772 -0.537886,0.918401 -1.035775,1.884799 -2.32579,1.900645 v -2.038192 c 0.775263,-1.641908 1.550527,-1.524249 2.32579,-1.863133 -0.588333,-3.309458 -0.324703,-6.618915 0,-9.928373 h 2.475841 c 0.776651,2.641175 1.216732,5.308241 0,8.102753 1.678021,-2.854766 2.977762,-2.872436 4.363983,-3.538702 v 2.038192 c -1.217602,1.581917 -2.533381,2.992023 -4.363983,3.50119 1.18335,2.104882 0.982137,4.209763 0,6.314645 2.862014,-0.63744 5.976351,-0.602016 9.303161,0 z m 14.192318,-6.97737 c 0,2.275773 -0.58353,4.072217 -1.75059,5.389331 -1.16707,1.317114 -2.730098,1.975671 -4.689095,1.975671 -1.975671,0 -3.547039,-0.658557 -4.714102,-1.975671 -1.158727,-1.317114 -1.73809,-3.113558 -1.73809,-5.389331 0,-2.275773 0.579363,-4.072217 1.73809,-5.389331 1.167063,-1.32545 2.738431,-1.988175 4.714102,-1.988175 1.958997,0 3.522025,0.662725 4.689095,1.988175 1.16706,1.317114 1.75059,3.113558 1.75059,5.389331 z m -2.42582,0 c 0,-1.808948 -0.35429,-3.151071 -1.06286,-4.026368 -0.70858,-0.883633 -1.692244,-1.32545 -2.951005,-1.32545 -1.275433,0 -2.267437,0.441817 -2.976011,1.32545 -0.700238,0.875297 -1.050357,2.21742 -1.050357,4.026368 0,1.750595 0.354287,3.080213 1.062861,3.988855 0.708574,0.900306 1.69641,1.350459 2.963507,1.350459 1.250425,0 2.229925,-0.445985 2.938495,-1.337955 0.71691,-0.900305 1.07537,-2.234092 1.07537,-4.001359 z M 125.51037,62.3724 c 0.0214,4.820326 -1.3377,9.45658 -3.63874,13.967245 h -2.17574 c -1.65641,-3.384201 -3.29523,-6.776216 -3.58872,-10.766157 0.12028,3.789978 -1.71684,7.278818 -3.56371,10.766157 h -2.16323 c -2.03057,-4.333686 -3.19476,-9.013927 -3.67625,-13.967245 h 2.45083 c 1.09427,3.533447 2.88718,6.857303 2.56337,10.816175 -0.0587,-3.605392 1.38575,-7.210783 3.48869,-10.816175 h 1.93815 c 2.2183,3.348834 3.21299,7.003573 3.57622,10.816175 0.14726,-3.605392 0.59111,-7.210783 2.42582,-10.816175 z m 5.91451,-2.338294 h -2.65091 v -2.438328 h 2.65091 z m -0.15006,16.305539 h -2.35079 c -1.48699,-4.443322 -0.59836,-9.226016 0,-13.967245 h 2.35079 c 0.94431,4.734441 0.91509,9.387754 0,13.967245 z m 14.98009,-0.875297 c -0.7836,0.375127 -1.52969,0.666893 -2.23826,0.875297 -0.70024,0.208405 -1.44633,0.312607 -2.23826,0.312607 -1.00867,0 -1.93399,-0.145883 -2.77594,-0.437649 -0.84195,-0.300102 -1.56303,-0.750255 -2.16324,-1.350459 -0.60854,-0.600204 -1.07953,-1.358795 -1.41298,-2.275773 -0.33345,-0.916978 -0.50017,-1.988175 -0.50017,-3.213592 0,-2.284109 0.62521,-4.076385 1.87564,-5.376826 1.25876,-1.300442 2.91766,-1.950663 4.97669,-1.950663 0.80027,0 1.58387,0.112538 2.3508,0.337615 0.77526,0.225076 1.48383,0.500169 2.12572,0.82528 v 2.613388 h -0.12504 c -0.71691,-0.558523 -1.45883,-0.987836 -2.22576,-1.287938 -0.75859,-0.300102 -1.5005,-0.450153 -2.22575,-0.450153 -1.33379,0 -2.38831,0.450153 -3.16358,1.350459 -0.76693,0.89197 -1.15039,2.204916 -1.15039,3.938838 0,1.683905 0.37513,2.980179 1.12538,3.888821 0.75859,0.900306 1.82146,1.350459 3.18859,1.350459 0.47516,0 0.95866,-0.06252 1.45049,-0.187564 0.49183,-0.125042 0.93365,-0.287597 1.32545,-0.487665 0.34178,-0.175059 0.66272,-0.358455 0.96283,-0.550187 0.3001,-0.200068 0.53768,-0.370959 0.71274,-0.512674 h 0.12504 z m 13.14197,0.875297 h -11.27883 v -1.73809 c 1.67469,-4.271867 4.78095,-7.372446 8.14026,-10.265988 -2.67725,0.221835 -5.42904,1.18905 -7.9652,0 V 62.3724 c 3.85931,-1.030073 7.3201,-0.266841 10.8912,0 v 1.67557 c -2.33213,3.527157 -3.44049,7.342262 -8.17778,10.3035 2.58226,-1.072633 5.19986,-1.968532 8.39035,0 z"
       id="text19"
       style="font-size:25.6087px;stroke-width:1.42591"
       aria-label="Åowicz"
       sodipodi:nodetypes="cccccccccccccccssscscscsscscscscsccccccccccccccccccccccccccsccsscscccccscscsscccccccccccccccc" />
    <path
       d="m 100.78084,117.70847 h -2.802739 c -0.232993,-3.10677 -1.580055,-5.95645 0,-9.48161 0.313016,-0.69835 -0.04472,-1.48089 -0.134174,-2.14679 -0.08945,-0.67583 -0.253439,-1.20259 -0.49197,-1.58026 -0.248471,-0.41743 -0.606268,-0.72554 -1.073391,-0.92431 -0.467124,-0.20872 -1.073391,-0.31308 -1.818801,-0.31308 -0.765287,0 -1.565361,0.18884 -2.40022,0.56652 -0.83486,0.37767 -1.634934,0.8597 -2.400221,1.44609 0.759055,4.14448 1.783613,8.28896 0,12.43344 h -2.802742 c -2.180518,-5.32129 -0.553433,-11.04338 0,-16.65246 1.238044,-1.721517 2.017958,-0.84696 2.802742,0 v 1.84862 c 0.874615,-0.72553 1.844415,-1.1667 2.713293,-1.69954 0.934247,-0.57293 1.916974,-0.54105 2.877283,-0.61123 2.273208,-0.16613 3.566182,0.0587 4.114664,1.62499 0.525144,1.49969 1.078256,2.85359 1.416276,4.68118 0.71645,3.87368 1.6901,7.27032 0,10.80844 z m 15.78779,-13.59628 h -0.14908 c -0.41743,-0.0994 -0.82492,-0.16896 -1.22247,-0.20871 -0.38761,-0.0497 -0.84977,-0.0745 -1.38647,-0.0745 -0.86467,0 -1.69953,0.19381 -2.50457,0.58142 -0.80505,0.37767 -1.58027,0.86964 -2.32568,1.47591 2.19473,4.04049 1.14098,7.93333 0,11.8222 h -2.80275 c -1.30716,-5.19432 -0.24533,-11.03473 0,-16.65246 0.65384,-0.91132 1.53021,-1.09944 2.80275,0 v 2.45985 c 1.11314,-0.89449 2.09211,-1.5256 2.93691,-1.89334 0.85474,-0.37767 1.72439,-0.56651 2.60894,-0.56651 0.487,0 0.83983,0.0149 1.05848,0.0447 0.21865,0.0199 0.54663,0.0646 0.98394,0.13417 z m 2.89219,13.59628 h -3.56306 c -2.44075,-2.27054 -0.34315,-2.95265 0,-4.24883 h 3.56306 c 0.2873,1.35243 1.01775,2.60639 0,4.24883 z m 31.93337,0 h -15.02747 c -2.64124,-1.69891 -0.11609,-2.10623 0,-3.11581 1.04358,-0.89449 2.08716,-1.78899 3.13073,-2.68348 1.05351,-0.89449 2.03248,-1.78402 2.93691,-2.66857 1.90825,-1.84861 3.21521,-3.31459 3.92086,-4.39792 0.70565,-1.09327 1.05848,-2.27101 1.05848,-3.53324 0,-1.1529 -0.38264,-2.052363 -1.14793,-2.698385 -0.75535,-0.655961 -1.81383,-0.983941 -3.17545,-0.983941 -0.90443,0 -1.8834,0.159021 -2.93691,0.477062 -1.05351,0.318042 -2.08218,0.805043 -3.086,1.461004 h -0.14908 c -2.7906,-1.650226 -0.41986,-2.178423 0,-3.130722 0.70565,-0.347858 1.64487,-0.6659 2.81765,-0.954125 1.18271,-0.288225 2.32567,-0.432338 3.42888,-0.432338 2.27599,0 4.06,0.551603 5.35205,1.65481 1.29205,1.093269 1.93807,2.57912 1.93807,4.457555 0,0.8448 -0.10933,1.63493 -0.32798,2.3704 -0.20872,0.72553 -0.52179,1.41628 -0.93922,2.07224 -0.38761,0.61621 -0.8448,1.22247 -1.37156,1.8188 -0.51681,0.59633 -1.14793,1.25726 -1.89334,1.98279 -1.06345,1.04358 -2.16169,2.05734 -3.29471,3.04128 -1.13303,0.974 -2.19151,1.87843 -3.17545,2.71329 4.20984,-0.9174 8.34313,-1.52861 11.94147,0 z"
       id="text20"
       style="font-size:30.532px;stroke-width:1.70003"
       aria-label="nr. 2"
       sodipodi:nodetypes="ccscccssccccccssssccccsccccccccsccccccccccccccscssccccscscccccccc" />
  </g>
</svg>
